<svg id="Layer_1" data-name="Layer 1" xmlns="http://www.w3.org/2000/svg" viewBox="0 0 22.39 28"><defs><style>.cls-1{fill:#f59579;}.cls-2{fill:#f48366;}.cls-3{fill:#f05b40;}.cls-4{fill:#c75c43;}.cls-5{fill:#f8a98e;}.cls-6{fill:#f27052;}.cls-7{fill:#fff;}.cls-8{font-size:6.18px;fill:#990d0d;font-family:MyriadPro-Regular, Myriad Pro;}</style></defs><title>win_castle</title><rect class="cls-1" x="9.57" y="3.96" width="3.79" height="5.93"/><polygon class="cls-2" points="9.1 3.96 11.46 0 13.83 3.96 9.1 3.96"/><path class="cls-3" d="M16.46,6.74V6.15a.38.38,0,0,0-.76,0v.59Z" transform="translate(-4.61 -1)"/><rect class="cls-3" x="10.99" y="5.74" width="0.94" height="0.16"/><rect class="cls-4" x="11.03" y="5.9" width="0.87" height="0.09"/><path class="cls-4" d="M15.84,6.74h.48V6.15a.23.23,0,0,0-.24-.23.23.23,0,0,0-.24.23Z" transform="translate(-4.61 -1)"/><rect class="cls-2" x="9.57" y="10.31" width="3.79" height="3.92"/><path class="cls-3" d="M16.46,13.23v-.59a.38.38,0,0,0-.76,0v.59Z" transform="translate(-4.61 -1)"/><rect class="cls-3" x="10.99" y="12.23" width="0.94" height="0.16"/><rect class="cls-4" x="11.03" y="12.39" width="0.87" height="0.09"/><path class="cls-4" d="M15.84,13.23h.48v-.59a.23.23,0,0,0-.24-.23.23.23,0,0,0-.24.23Z" transform="translate(-4.61 -1)"/><polygon class="cls-2" points="12.98 8.1 12.98 8.88 12 8.88 12 8.1 10.94 8.1 10.94 8.88 9.95 8.88 9.95 8.1 8.9 8.1 8.9 9.89 14.04 9.89 14.04 8.1 12.98 8.1"/><rect class="cls-1" x="9.22" y="9.89" width="4.49" height="0.42"/><rect class="cls-5" x="5.91" y="7.5" width="2.79" height="6.73"/><polygon class="cls-1" points="5.54 7.5 7.3 3.96 9.07 7.5 5.54 7.5"/><path class="cls-3" d="M12.3,10.42V9.83a.39.39,0,0,0-.77,0v.59Z" transform="translate(-4.61 -1)"/><rect class="cls-3" x="6.83" y="9.42" width="0.94" height="0.16"/><rect class="cls-4" x="6.87" y="9.57" width="0.87" height="0.09"/><path class="cls-4" d="M11.67,10.42h.49V9.83a.25.25,0,0,0-.49,0Z" transform="translate(-4.61 -1)"/><rect class="cls-5" x="14.23" y="7.5" width="2.79" height="6.73"/><polygon class="cls-1" points="13.86 7.5 15.63 3.96 17.39 7.5 13.86 7.5"/><path class="cls-3" d="M20.62,10.42V9.83a.38.38,0,0,0-.76,0v.59Z" transform="translate(-4.61 -1)"/><rect class="cls-3" x="15.16" y="9.42" width="0.94" height="0.16"/><rect class="cls-4" x="15.19" y="9.57" width="0.87" height="0.09"/><path class="cls-4" d="M20,10.42h.48V9.83a.24.24,0,0,0-.48,0Z" transform="translate(-4.61 -1)"/><polygon class="cls-1" points="16.82 13.2 16.82 13.85 16.19 13.85 16.19 13.2 15.56 13.2 15.56 13.85 14.93 13.85 14.93 13.2 14.3 13.2 14.3 13.85 13.67 13.85 13.67 13.2 13.04 13.2 13.04 13.85 12.41 13.85 12.41 13.2 11.78 13.2 11.78 13.85 11.15 13.85 11.15 13.2 10.52 13.2 10.52 13.85 9.89 13.85 9.89 13.2 9.26 13.2 9.26 13.85 8.63 13.85 8.63 13.2 8 13.2 8 13.85 7.37 13.85 7.37 13.2 6.74 13.2 6.74 13.85 6.1 13.85 6.1 13.2 5.47 13.2 5.47 21.86 17.45 21.86 17.45 13.2 16.82 13.2"/><path class="cls-6" d="M18.63,19.57a2.55,2.55,0,0,0-5.1,0v3.29h5.1Z" transform="translate(-4.61 -1)"/><path class="cls-1" d="M16.08,17.63h0v5.23h2V19.57A2,2,0,0,0,16.08,17.63Z" transform="translate(-4.61 -1)"/><path class="cls-2" d="M16.08,17.63h0v5.23h-2V19.57A2,2,0,0,1,16.08,17.63Z" transform="translate(-4.61 -1)"/><rect class="cls-2" x="2.68" y="10.44" width="2.79" height="11.42"/><path class="cls-3" d="M9.08,13.35v-.59a.39.39,0,0,0-.39-.37.38.38,0,0,0-.38.37v.59Z" transform="translate(-4.61 -1)"/><rect class="cls-3" x="3.61" y="12.35" width="0.94" height="0.16"/><rect class="cls-4" x="3.64" y="12.51" width="0.87" height="0.09"/><path class="cls-4" d="M8.45,13.35h.49v-.59a.24.24,0,0,0-.25-.23.23.23,0,0,0-.24.23Z" transform="translate(-4.61 -1)"/><path class="cls-3" d="M9.08,17.69V17.1a.39.39,0,0,0-.39-.37.38.38,0,0,0-.38.37v.59Z" transform="translate(-4.61 -1)"/><rect class="cls-3" x="3.61" y="16.69" width="0.94" height="0.16"/><rect class="cls-4" x="3.64" y="16.85" width="0.87" height="0.09"/><path class="cls-4" d="M8.45,17.69h.49V17.1a.25.25,0,0,0-.49,0Z" transform="translate(-4.61 -1)"/><polygon class="cls-2" points="5.22 8.78 5.22 9.39 4.48 9.39 4.48 8.78 3.68 8.78 3.68 9.39 2.94 9.39 2.94 8.78 2.15 8.78 2.15 10.12 6.01 10.12 6.01 8.78 5.22 8.78"/><rect class="cls-1" x="2.39" y="10.12" width="3.38" height="0.32"/><rect class="cls-2" x="17.45" y="10.44" width="2.79" height="11.42"/><path class="cls-3" d="M23.84,13.35v-.59a.38.38,0,0,0-.76,0v.59Z" transform="translate(-4.61 -1)"/><rect class="cls-3" x="18.38" y="12.35" width="0.94" height="0.16"/><rect class="cls-4" x="18.41" y="12.51" width="0.87" height="0.09"/><path class="cls-4" d="M23.22,13.35h.48v-.59a.24.24,0,0,0-.48,0Z" transform="translate(-4.61 -1)"/><path class="cls-3" d="M23.84,17.69V17.1a.38.38,0,0,0-.76,0v.59Z" transform="translate(-4.61 -1)"/><rect class="cls-3" x="18.38" y="16.69" width="0.94" height="0.16"/><rect class="cls-4" x="18.41" y="16.85" width="0.87" height="0.09"/><path class="cls-4" d="M23.22,17.69h.48V17.1a.24.24,0,1,0-.48,0Z" transform="translate(-4.61 -1)"/><polygon class="cls-2" points="19.98 8.78 19.98 9.39 19.24 9.39 19.24 8.78 18.45 8.78 18.45 9.39 17.71 9.39 17.71 8.78 16.91 8.78 16.91 10.12 20.78 10.12 20.78 8.78 19.98 8.78"/><rect class="cls-1" x="17.16" y="10.12" width="3.38" height="0.32"/><path class="cls-7" d="M26.48,23.48a1.53,1.53,0,0,0,.18-.74A1.68,1.68,0,0,0,25,21.09a1.73,1.73,0,0,0-1.41.72,2.12,2.12,0,0,0-3.3-.31,1.68,1.68,0,0,0-1-.29,1.72,1.72,0,0,0-1.62,1.1,1.39,1.39,0,0,0-1.11-.52,1.43,1.43,0,0,0-1.08.49,2.1,2.1,0,0,0-1.73-.9,2.14,2.14,0,0,0-1.4.52,1.43,1.43,0,0,0-2.41-.27,1.78,1.78,0,0,0-1-.32,1.7,1.7,0,0,0-1,.3,1.47,1.47,0,0,0-1-.43,1.39,1.39,0,0,0-1.41,1.36,2.11,2.11,0,0,0,0,.25,2,2,0,0,0-.9,1.65,2,2,0,0,0,2.08,2,2.09,2.09,0,0,0,.43,0,1.71,1.71,0,0,0,1.46.79,1.82,1.82,0,0,0,.7-.14,1.39,1.39,0,0,0,1.34,1,1.48,1.48,0,0,0,.81-.24,2.08,2.08,0,0,0,1.88,1.15,2.14,2.14,0,0,0,1.43-.55,1.74,1.74,0,0,0,2.76-.1,1.45,1.45,0,0,0,2.09,0,1.75,1.75,0,0,0,2.63-.33,2.14,2.14,0,0,0,1.07.29,2,2,0,0,0,2.08-1.91A1.68,1.68,0,0,0,27,24.66,1.6,1.6,0,0,0,26.48,23.48Z" transform="translate(-4.61 -1)"/><text class="cls-8" transform="translate(3.55 26.17)">FINISH</text></svg>