<?xml version="1.0" encoding="utf-8"?>
<!-- Generator: Adobe Illustrator 22.1.0, SVG Export Plug-In . SVG Version: 6.00 Build 0)  -->
<svg version="1.1" id="Capa_1" xmlns="http://www.w3.org/2000/svg" xmlns:xlink="http://www.w3.org/1999/xlink" x="0px" y="0px"
	 viewBox="0 0 512 512" style="enable-background:new 0 0 512 512;" xml:space="preserve">
<style type="text/css">
	.st0{fill:#EDFF00;}
</style>
<g>
	<g>
		<path class="st0" d="M451.2,354.6c81-81,81-212.8,0-293.8c-81-81-212.8-81-293.8,0c-68.7,68.7-79.1,170.9-31.3,250.7
			c0,0,3.4,5.8-1.2,10.4c-26.5,26.5-106,106-106,106c-21.1,21.1-26.1,50.6-7.4,69.3l3.2,3.2c18.7,18.7,48.2,13.7,69.3-7.4
			c0,0,79.3-79.3,105.8-105.8c4.9-4.9,10.6-1.4,10.6-1.4C280.3,433.7,382.5,423.3,451.2,354.6z M195.8,316.2
			c-59.9-59.9-59.9-157.2,0-217.1c59.9-59.9,157.2-59.9,217.1,0c59.9,59.9,59.9,157.2,0,217.1C353,376.1,255.7,376.1,195.8,316.2z"
			/>
		<g>
			<path class="st0" d="M209.1,195.3c-2.8,0-5.6-0.5-8.3-1.7c-10.9-4.6-16-17.2-11.4-28.1c29-68.5,108.4-100.7,176.9-71.7
				c10.9,4.6,16,17.2,11.4,28.1c-4.6,10.9-17.2,16-28.1,11.4c-46.8-19.8-100.9,2.2-120.7,48.9C225.4,190.4,217.4,195.3,209.1,195.3z
				"/>
		</g>
	</g>
</g>
</svg>
